# xmcd CD database file
#
# Track frame offsets:
#	150
#	11637
#	28875
#	39912
#	65475
#	77850
#	92100
#	101925
#	120125
#	128537
#	152650
#	164862
#	176250
#	198625
#	217637
#	231850
#	241850
#	255310
#	280245
#
# Disc length: 3871 seconds
#
# Revision: 2
# Processed by: cddbd v1.5.1PL0 Copyright (c) Steve Scherf et al.
# Submitted via: CDex 1.51
#
DISCID=f60f1d13
DTITLE=James Cotton Blues Band - Dealing With the Devil
DYEAR=1991
DGENRE=Blues
TTITLE0=Good Time Charlie
TTITLE1=There Is Something On Your Mind
TTITLE2=Turn On Your Lovelight
TTITLE3=Jelly, Jelly
TTITLE4=Hey, Hey
TTITLE5=So Glad Your Mine
TTITLE6=Diggin' My Potatoes
TTITLE7=V8 Ford Blues
TTITLE8=Polly Put the Kettle On
TTITLE9=Blues In My Sleep
TTITLE10=Off The Wall
TTITLE11=Don't Start Me Talkin'
TTITLE12=I Been Dealing With The Devil
TTITLE13=The Creeper
TTITLE14=Feelin' Good
TTITLE15=You Know It Ain't Right
TTITLE16=Knock On Wood
TTITLE17=Sweet Sixteen
TTITLE18=I Need You So Bad
EXTD=YEAR: 1991
EXTT0=
EXTT1=
EXTT2=
EXTT3=
EXTT4=
EXTT5=
EXTT6=
EXTT7=
EXTT8=
EXTT9=
EXTT10=
EXTT11=
EXTT12=
EXTT13=
EXTT14=
EXTT15=
EXTT16=
EXTT17=
EXTT18=
PLAYORDER=
